<mxfile host="app.diagrams.net" agent="Mozilla/5.0 (Windows NT 10.0; Win64; x64) AppleWebKit/537.36 (KHTML, like Gecko) Chrome/129.0.0.0 Safari/537.36" version="24.7.17">
  <diagram id="C5RBs43oDa-KdzZeNtuy" name="Page-1">
    <mxGraphModel dx="1395" dy="643" grid="1" gridSize="10" guides="1" tooltips="1" connect="1" arrows="1" fold="1" page="1" pageScale="1" pageWidth="827" pageHeight="1169" math="0" shadow="0">
      <root>
        <mxCell id="WIyWlLk6GJQsqaUBKTNV-0" />
        <mxCell id="WIyWlLk6GJQsqaUBKTNV-1" parent="WIyWlLk6GJQsqaUBKTNV-0" />
        <mxCell id="I8uJw4wp6CpWQ23IQqBK-2" value="" style="edgeStyle=orthogonalEdgeStyle;rounded=0;orthogonalLoop=1;jettySize=auto;html=1;" edge="1" parent="WIyWlLk6GJQsqaUBKTNV-1" source="I8uJw4wp6CpWQ23IQqBK-0" target="I8uJw4wp6CpWQ23IQqBK-1">
          <mxGeometry relative="1" as="geometry" />
        </mxCell>
        <mxCell id="I8uJw4wp6CpWQ23IQqBK-0" value="avcodec_register_all()" style="rounded=0;whiteSpace=wrap;html=1;" vertex="1" parent="WIyWlLk6GJQsqaUBKTNV-1">
          <mxGeometry x="120" y="40" width="190" height="30" as="geometry" />
        </mxCell>
        <mxCell id="I8uJw4wp6CpWQ23IQqBK-4" value="" style="edgeStyle=orthogonalEdgeStyle;rounded=0;orthogonalLoop=1;jettySize=auto;html=1;" edge="1" parent="WIyWlLk6GJQsqaUBKTNV-1" source="I8uJw4wp6CpWQ23IQqBK-1" target="I8uJw4wp6CpWQ23IQqBK-3">
          <mxGeometry relative="1" as="geometry" />
        </mxCell>
        <mxCell id="I8uJw4wp6CpWQ23IQqBK-1" value="avcodec_find_decoder()" style="rounded=0;whiteSpace=wrap;html=1;" vertex="1" parent="WIyWlLk6GJQsqaUBKTNV-1">
          <mxGeometry x="120" y="120" width="190" height="30" as="geometry" />
        </mxCell>
        <mxCell id="I8uJw4wp6CpWQ23IQqBK-6" value="" style="edgeStyle=orthogonalEdgeStyle;rounded=0;orthogonalLoop=1;jettySize=auto;html=1;" edge="1" parent="WIyWlLk6GJQsqaUBKTNV-1" source="I8uJw4wp6CpWQ23IQqBK-3" target="I8uJw4wp6CpWQ23IQqBK-5">
          <mxGeometry relative="1" as="geometry" />
        </mxCell>
        <mxCell id="I8uJw4wp6CpWQ23IQqBK-3" value="avcodec_alloc_context3()" style="rounded=0;whiteSpace=wrap;html=1;" vertex="1" parent="WIyWlLk6GJQsqaUBKTNV-1">
          <mxGeometry x="120" y="200" width="190" height="30" as="geometry" />
        </mxCell>
        <mxCell id="I8uJw4wp6CpWQ23IQqBK-8" value="" style="edgeStyle=orthogonalEdgeStyle;rounded=0;orthogonalLoop=1;jettySize=auto;html=1;" edge="1" parent="WIyWlLk6GJQsqaUBKTNV-1" source="I8uJw4wp6CpWQ23IQqBK-5" target="I8uJw4wp6CpWQ23IQqBK-7">
          <mxGeometry relative="1" as="geometry" />
        </mxCell>
        <mxCell id="I8uJw4wp6CpWQ23IQqBK-5" value="av_parser_init()" style="rounded=0;whiteSpace=wrap;html=1;" vertex="1" parent="WIyWlLk6GJQsqaUBKTNV-1">
          <mxGeometry x="120" y="280" width="190" height="30" as="geometry" />
        </mxCell>
        <mxCell id="I8uJw4wp6CpWQ23IQqBK-10" value="" style="edgeStyle=orthogonalEdgeStyle;rounded=0;orthogonalLoop=1;jettySize=auto;html=1;" edge="1" parent="WIyWlLk6GJQsqaUBKTNV-1" source="I8uJw4wp6CpWQ23IQqBK-7" target="I8uJw4wp6CpWQ23IQqBK-9">
          <mxGeometry relative="1" as="geometry" />
        </mxCell>
        <mxCell id="I8uJw4wp6CpWQ23IQqBK-7" value="avcodec_open2()" style="rounded=0;whiteSpace=wrap;html=1;" vertex="1" parent="WIyWlLk6GJQsqaUBKTNV-1">
          <mxGeometry x="120" y="360" width="190" height="30" as="geometry" />
        </mxCell>
        <mxCell id="I8uJw4wp6CpWQ23IQqBK-12" value="" style="edgeStyle=orthogonalEdgeStyle;rounded=0;orthogonalLoop=1;jettySize=auto;html=1;" edge="1" parent="WIyWlLk6GJQsqaUBKTNV-1" source="I8uJw4wp6CpWQ23IQqBK-9" target="I8uJw4wp6CpWQ23IQqBK-11">
          <mxGeometry relative="1" as="geometry" />
        </mxCell>
        <mxCell id="I8uJw4wp6CpWQ23IQqBK-9" value="fread()" style="rounded=0;whiteSpace=wrap;html=1;" vertex="1" parent="WIyWlLk6GJQsqaUBKTNV-1">
          <mxGeometry x="160" y="470" width="110" height="30" as="geometry" />
        </mxCell>
        <mxCell id="I8uJw4wp6CpWQ23IQqBK-14" value="" style="edgeStyle=orthogonalEdgeStyle;rounded=0;orthogonalLoop=1;jettySize=auto;html=1;" edge="1" parent="WIyWlLk6GJQsqaUBKTNV-1" source="I8uJw4wp6CpWQ23IQqBK-11" target="I8uJw4wp6CpWQ23IQqBK-13">
          <mxGeometry relative="1" as="geometry" />
        </mxCell>
        <mxCell id="I8uJw4wp6CpWQ23IQqBK-15" value="true&lt;div&gt;&lt;br&gt;&lt;/div&gt;" style="edgeLabel;html=1;align=center;verticalAlign=middle;resizable=0;points=[];" vertex="1" connectable="0" parent="I8uJw4wp6CpWQ23IQqBK-14">
          <mxGeometry x="-0.2077" y="3" relative="1" as="geometry">
            <mxPoint y="3" as="offset" />
          </mxGeometry>
        </mxCell>
        <mxCell id="I8uJw4wp6CpWQ23IQqBK-27" value="" style="edgeStyle=orthogonalEdgeStyle;rounded=0;orthogonalLoop=1;jettySize=auto;html=1;" edge="1" parent="WIyWlLk6GJQsqaUBKTNV-1" source="I8uJw4wp6CpWQ23IQqBK-11" target="I8uJw4wp6CpWQ23IQqBK-26">
          <mxGeometry relative="1" as="geometry" />
        </mxCell>
        <mxCell id="I8uJw4wp6CpWQ23IQqBK-28" value="false" style="edgeLabel;html=1;align=center;verticalAlign=middle;resizable=0;points=[];" vertex="1" connectable="0" parent="I8uJw4wp6CpWQ23IQqBK-27">
          <mxGeometry x="0.0444" relative="1" as="geometry">
            <mxPoint as="offset" />
          </mxGeometry>
        </mxCell>
        <mxCell id="I8uJw4wp6CpWQ23IQqBK-11" value="End?" style="rhombus;whiteSpace=wrap;html=1;rounded=0;" vertex="1" parent="WIyWlLk6GJQsqaUBKTNV-1">
          <mxGeometry x="175" y="555" width="80" height="80" as="geometry" />
        </mxCell>
        <mxCell id="I8uJw4wp6CpWQ23IQqBK-17" value="" style="edgeStyle=orthogonalEdgeStyle;rounded=0;orthogonalLoop=1;jettySize=auto;html=1;" edge="1" parent="WIyWlLk6GJQsqaUBKTNV-1" source="I8uJw4wp6CpWQ23IQqBK-13" target="I8uJw4wp6CpWQ23IQqBK-16">
          <mxGeometry relative="1" as="geometry" />
        </mxCell>
        <mxCell id="I8uJw4wp6CpWQ23IQqBK-13" value="av_parser_parse2()" style="whiteSpace=wrap;html=1;rounded=0;" vertex="1" parent="WIyWlLk6GJQsqaUBKTNV-1">
          <mxGeometry x="390" y="660" width="120" height="30" as="geometry" />
        </mxCell>
        <mxCell id="I8uJw4wp6CpWQ23IQqBK-19" value="" style="edgeStyle=orthogonalEdgeStyle;rounded=0;orthogonalLoop=1;jettySize=auto;html=1;" edge="1" parent="WIyWlLk6GJQsqaUBKTNV-1" source="I8uJw4wp6CpWQ23IQqBK-16" target="I8uJw4wp6CpWQ23IQqBK-18">
          <mxGeometry relative="1" as="geometry" />
        </mxCell>
        <mxCell id="I8uJw4wp6CpWQ23IQqBK-16" value="AVPacket" style="whiteSpace=wrap;html=1;rounded=0;" vertex="1" parent="WIyWlLk6GJQsqaUBKTNV-1">
          <mxGeometry x="390" y="720" width="120" height="30" as="geometry" />
        </mxCell>
        <mxCell id="I8uJw4wp6CpWQ23IQqBK-21" value="" style="edgeStyle=orthogonalEdgeStyle;rounded=0;orthogonalLoop=1;jettySize=auto;html=1;" edge="1" parent="WIyWlLk6GJQsqaUBKTNV-1" source="I8uJw4wp6CpWQ23IQqBK-18" target="I8uJw4wp6CpWQ23IQqBK-20">
          <mxGeometry relative="1" as="geometry" />
        </mxCell>
        <mxCell id="I8uJw4wp6CpWQ23IQqBK-18" value="avcodec_decode_vedio2()" style="whiteSpace=wrap;html=1;rounded=0;" vertex="1" parent="WIyWlLk6GJQsqaUBKTNV-1">
          <mxGeometry x="355" y="780" width="190" height="30" as="geometry" />
        </mxCell>
        <mxCell id="I8uJw4wp6CpWQ23IQqBK-23" value="" style="edgeStyle=orthogonalEdgeStyle;rounded=0;orthogonalLoop=1;jettySize=auto;html=1;" edge="1" parent="WIyWlLk6GJQsqaUBKTNV-1" source="I8uJw4wp6CpWQ23IQqBK-20" target="I8uJw4wp6CpWQ23IQqBK-22">
          <mxGeometry relative="1" as="geometry" />
        </mxCell>
        <mxCell id="I8uJw4wp6CpWQ23IQqBK-20" value="AVFrame" style="whiteSpace=wrap;html=1;rounded=0;" vertex="1" parent="WIyWlLk6GJQsqaUBKTNV-1">
          <mxGeometry x="355" y="840" width="190" height="30" as="geometry" />
        </mxCell>
        <mxCell id="I8uJw4wp6CpWQ23IQqBK-24" style="edgeStyle=orthogonalEdgeStyle;rounded=0;orthogonalLoop=1;jettySize=auto;html=1;" edge="1" parent="WIyWlLk6GJQsqaUBKTNV-1" source="I8uJw4wp6CpWQ23IQqBK-22">
          <mxGeometry relative="1" as="geometry">
            <mxPoint x="220" y="442" as="targetPoint" />
            <Array as="points">
              <mxPoint x="601" y="915" />
              <mxPoint x="601" y="442" />
            </Array>
          </mxGeometry>
        </mxCell>
        <mxCell id="I8uJw4wp6CpWQ23IQqBK-22" value="fwrite()" style="whiteSpace=wrap;html=1;rounded=0;" vertex="1" parent="WIyWlLk6GJQsqaUBKTNV-1">
          <mxGeometry x="355" y="900" width="190" height="30" as="geometry" />
        </mxCell>
        <mxCell id="I8uJw4wp6CpWQ23IQqBK-30" value="" style="edgeStyle=orthogonalEdgeStyle;rounded=0;orthogonalLoop=1;jettySize=auto;html=1;" edge="1" parent="WIyWlLk6GJQsqaUBKTNV-1" source="I8uJw4wp6CpWQ23IQqBK-26" target="I8uJw4wp6CpWQ23IQqBK-29">
          <mxGeometry relative="1" as="geometry" />
        </mxCell>
        <mxCell id="I8uJw4wp6CpWQ23IQqBK-26" value="Flush Decoder&lt;div&gt;&lt;br&gt;&lt;/div&gt;" style="whiteSpace=wrap;html=1;rounded=0;" vertex="1" parent="WIyWlLk6GJQsqaUBKTNV-1">
          <mxGeometry x="155" y="805" width="120" height="35" as="geometry" />
        </mxCell>
        <mxCell id="I8uJw4wp6CpWQ23IQqBK-29" value="&lt;div&gt;Close&lt;/div&gt;" style="whiteSpace=wrap;html=1;rounded=0;" vertex="1" parent="WIyWlLk6GJQsqaUBKTNV-1">
          <mxGeometry x="155" y="920" width="120" height="35" as="geometry" />
        </mxCell>
      </root>
    </mxGraphModel>
  </diagram>
</mxfile>
